<svg xmlns="http://www.w3.org/2000/svg" xmlns:xlink="http://www.w3.org/1999/xlink" width="70.555" height="72.102" viewBox="0 0 70.555 72.102">
  <defs>
    <filter id="Path_13255" x="0" y="0" width="70.555" height="72.102" filterUnits="userSpaceOnUse">
      <feOffset input="SourceAlpha"/>
      <feGaussianBlur stdDeviation="2.5" result="blur"/>
      <feFlood flood-opacity="0.702"/>
      <feComposite operator="in" in2="blur"/>
      <feComposite in="SourceGraphic"/>
    </filter>
  </defs>
  <g id="Group_26640" data-name="Group 26640" transform="translate(6946.363 8781.142) rotate(-11)">
    <path id="Path_13171" data-name="Path 13171" d="M293.53,264.769l.1-.111.191-.222c-.166.194-.337.382-.512.565l.124-.128Z" transform="translate(-5395.455 -10164.81)" fill="#ff0013"/>
    <path id="Path_13172" data-name="Path 13172" d="M291.448,270.4l-.194.2q.1-.1.194-.2" transform="translate(-5393.599 -10170.209)" fill="#ff0013"/>
    <path id="Path_13173" data-name="Path 13173" d="M283.813,274.482l-.212.192q.291-.252.568-.52c-.116.112-.238.219-.356.328" transform="translate(-5386.671 -10173.607)" fill="#ff0013"/>
    <path id="Path_13174" data-name="Path 13174" d="M289.749,272.505l-.158.156c.023-.022.047-.043.07-.066Z" transform="translate(-5392.094 -10172.114)" fill="#ff0013"/>
    <path id="Path_13175" data-name="Path 13175" d="M283.545,279.644l-.006.005,0,0Z" transform="translate(-5386.615 -10178.577)" fill="#ff0013"/>
    <g transform="matrix(0.98, 0.19, -0.19, 0.98, -5143.22, -9945.24)" filter="url(#Path_13255)">
      <path id="Path_13255-2" data-name="Path 13255" d="M41.286,35.943l.108-.173c.1-.164.232-.368.351-.591l.037-.067c.121-.221.244-.445.371-.686l.01-.019.4-.854c.115-.257.213-.5.291-.7l.1-.242a21.588,21.588,0,0,0,1.182-4.676,20.021,20.021,0,0,0,.076-4.852A17.993,17.993,0,0,0,43.005,18.3a17.673,17.673,0,0,0-1.629-3.1l.114-.085-1.172-1.361-.769-.982.027-.03-.154-.133-.415-.53-.105.082-1.216-1.047L36.467,10.08l-.062.066q-.128-.089-.258-.176A17.553,17.553,0,0,0,34.478,9,16.9,16.9,0,0,0,33.5,7.606a18.652,18.652,0,0,0-3.825-3.672A20.757,20.757,0,0,0,25.1,1.446,22.848,22.848,0,0,0,20.123.133a11.07,11.07,0,0,0-1.5-.1l-.069,0c-.21,0-.432-.01-.675-.022h-.018C17.617,0,17.387,0,17.157,0a22.545,22.545,0,0,0-9.19,2.058l-.1.043A19.823,19.823,0,0,0,2.514,5.264,13.556,13.556,0,0,0,.623,7.191a2.646,2.646,0,0,0-.4,2.741,2.527,2.527,0,0,0,2.131,1.5l.113.007h.09a3.809,3.809,0,0,0,1.635-.427c.115-.052.242-.114.377-.18l.242-.117c.116-.056.234-.116.366-.184l.043-.022c.111-.056.228-.116.366-.183l.017-.008c.629-.321,1.317-.649,2.043-.974a25.691,25.691,0,0,1,2.814-1.074,21.943,21.943,0,0,1,3.071-.73,18.977,18.977,0,0,1,3.033-.248,16.962,16.962,0,0,1,3.457.348,15.47,15.47,0,0,1,2.265.656A12.878,12.878,0,0,0,20.206,9.4a11.478,11.478,0,0,0-2.3,2.027A10.39,10.39,0,0,0,16.2,14.1a11.09,11.09,0,0,0-.841,3.006l0,.024-.024.262a10.5,10.5,0,0,0-.053,1.267,9.9,9.9,0,0,0,.129,1.57l0,.021a10.149,10.149,0,0,0,.418,1.623,9.937,9.937,0,0,0,.711,1.546,9.647,9.647,0,0,0,2.163,2.56,10.607,10.607,0,0,0,2.728,1.644,12.345,12.345,0,0,0,1.452.493,12.872,12.872,0,0,0,1.475.295,12.4,12.4,0,0,0,1.64.11,11.724,11.724,0,0,0,4.318-.81,10.55,10.55,0,0,0,2.762-1.6,10.073,10.073,0,0,0,2.2-2.455,10.215,10.215,0,0,0,.753-1.422c.06-.131.121-.279.167-.408l.131-.348.092-.287A11.213,11.213,0,0,1,37,23.157a11.008,11.008,0,0,1,.145,2.583,13.428,13.428,0,0,1-.511,2.948,17.239,17.239,0,0,1-.987,2.607l-.3.608c-.03.065-.06.118-.095.182l-.074.135-1.674-1.2-.221.3-.338-.179.031-.129-1.557-.674.046-.2-1.632-.666c-.115-.047-.258-.1-.459-.166a4.027,4.027,0,0,0-.414-.1,3.7,3.7,0,0,0-.412-.057l-.035,0c-.1-.006-.165-.008-.238-.008h-.06a3.521,3.521,0,0,0-.385.029c-.1.014-.185.029-.292.052l-.037.009a3.507,3.507,0,0,0-.559.188l-.063.028-.156.076-.138.072c-.145.08-.268.155-.374.228a4.506,4.506,0,0,0-.632.517,4.238,4.238,0,0,0-.546.66l-.775,2.057a4.182,4.182,0,0,0,.189,1.29l.045.141.087.252c.229.638.659,1.98,1.037,3.161l.017.053c.247.773.481,1.5.634,1.957a38.61,38.61,0,0,1,1.551,5.33l.085.494a4.83,4.83,0,0,0,.241.839l.013.033a4.349,4.349,0,0,0,.4.746,3.712,3.712,0,0,0,1.565,1.317,3.982,3.982,0,0,0,1.521.356l.14,0a4.006,4.006,0,0,0,1.539-.313l.292-.125.084-.05a12.852,12.852,0,0,0,4.253-1.349l.724-.338,1.809-.7.038-.019c.033-.016.066-.033.1-.05a3.808,3.808,0,0,0,.426-.161l.935-.416.017,0c.331-.059.567-.1.77-.152l.037.005.463-.128,2.171-.7-.051-.193A3.348,3.348,0,0,0,46.875,42.6a2.962,2.962,0,0,0,.006-2.081s-5.569-4.555-5.595-4.572M28.718,20.013a3.057,3.057,0,0,1-1.068.739,4.376,4.376,0,0,1-1.678.321,4.541,4.541,0,0,1-1.443-.229,3.27,3.27,0,0,1-1.187-.667,2.027,2.027,0,0,1-.571-.863l-.018-.051c0-.013-.038-.136-.038-.136l-.021-.1L22.689,19l-.018-.116c-.007-.041-.011-.091-.017-.15l0-.03v-.08c0-.08,0-.145,0-.207a3.3,3.3,0,0,1,.117-.947,3.583,3.583,0,0,1,.412-.928,3.757,3.757,0,0,1,.7-.785,4.254,4.254,0,0,1,.955-.631,5.867,5.867,0,0,1,1.211-.435,7.316,7.316,0,0,1,1.364-.169h.014l.156,0,.345.007.159.014c.064.007.142.013.243.021l.024,0c.021,0,.042,0,.066.006l.445.069.2.042c.059.169.113.339.161.508l.007.023c.029.093.053.2.081.313l.04.166.027.136c.023.116.045.225.055.3l.01.067c.021.121.034.238.05.376l.015.131.021.285c0,.056.007.107.008.173V17.2a5.785,5.785,0,0,1-.033.915,4.554,4.554,0,0,1-.161.788,2.868,2.868,0,0,1-.618,1.114" transform="translate(7.5 16.48) rotate(-11)" fill="#fff"/>
    </g>
    <path id="Path_13256" data-name="Path 13256" d="M223.666,85.828l-.121-.139-.128-.132-.157-.16c.221.231.437.466.646.71Z" transform="translate(-5324.737 -9998.671)" fill="#ff0013"/>
    <path id="Path_13257" data-name="Path 13257" d="M217.08,79.5q-.348-.338-.716-.653l.267.241c.149.138.3.272.449.412" transform="translate(-5319 -9993.225)" fill="#ff0013"/>
    <path id="Path_13258" data-name="Path 13258" d="M220.71,82.822c-.029-.029-.059-.055-.088-.083.067.065.133.13.2.2Z" transform="translate(-5322.542 -9996.46)" fill="#ff0013"/>
    <path id="Path_13259" data-name="Path 13259" d="M216.324,78.815l0,0,.008.007Z" transform="translate(-5318.963 -9993.192)" fill="#ff0013"/>
    <path id="Path_13260" data-name="Path 13260" d="M56.8,53.567a12.511,12.511,0,0,0-2.176-1.5c-.227-.187-.485-.385-.693-.563a14.82,14.82,0,0,1-1.708-1.172h.054c-.741-.495-1.5-.977-2.271-1.441a16.484,16.484,0,0,0,1.452-1.96c.131-.216.276-.43.4-.662s.256-.466.384-.709L52.6,44.8c.115-.26.22-.531.33-.8a19.04,19.04,0,0,0,1.04-4.121,17.549,17.549,0,0,0,.067-4.249A15.525,15.525,0,0,0,53,31.5a15.241,15.241,0,0,0-2.123-3.668l-.169.13c-.037-.05-.072-.1-.11-.149l-.118-.142-.236-.284L50,27.107c-.079-.095-.167-.18-.25-.27l-.508-.533-.537-.5c-.175-.17-.368-.322-.557-.477s-.373-.316-.577-.454l-.6-.428-.624-.391q-.587-.349-1.206-.643c-.035-.066-.072-.13-.108-.2l.261.116c.113.047.22.106.328.163l.324.171a14.822,14.822,0,0,1,2.422,1.63c.093.076.189.148.279.227a16.572,16.572,0,0,0-1.582-1.209,14.821,14.821,0,0,0-2.048-1.126A14.509,14.509,0,0,0,43.836,21.4a16.2,16.2,0,0,0-3.317-3.182,18.259,18.259,0,0,0-4.035-2.189,20.375,20.375,0,0,0-4.444-1.171c-.517-.081-1.2-.056-1.981-.095a20.26,20.26,0,0,0-8.96,1.9,17.306,17.306,0,0,0-4.659,2.738,11.048,11.048,0,0,0-1.56,1.577c-.119.155-.135.24-.041.248a1.761,1.761,0,0,0,.615-.2c.159-.072.345-.167.567-.273s.469-.24.757-.379c.568-.29,1.279-.634,2.144-1.022a28.433,28.433,0,0,1,3.093-1.179,24.419,24.419,0,0,1,3.412-.809,20.375,20.375,0,0,1,7.4.121,17.4,17.4,0,0,1,3.643,1.184,15.367,15.367,0,0,1,3.272,2.008,13.6,13.6,0,0,1,1.522,1.434l-.078-.008-.58-.054c-.193-.02-.388-.015-.582-.023l-.291-.007c-.1,0-.195.006-.292.009-.195.009-.389.014-.584.028l-.582.065a11.1,11.1,0,0,0-2.281.554,10.447,10.447,0,0,0-2.116,1.065,8.967,8.967,0,0,0-1.8,1.585,7.956,7.956,0,0,0-1.3,2.039,8.631,8.631,0,0,0-.652,2.329,9.619,9.619,0,0,0-.058,1.2,7.337,7.337,0,0,0,.1,1.213,7.575,7.575,0,0,0,.309,1.2,7.325,7.325,0,0,0,.523,1.14,7.1,7.1,0,0,0,1.606,1.9,8.11,8.11,0,0,0,2.086,1.255,9.65,9.65,0,0,0,1.138.387,10.136,10.136,0,0,0,1.172.234,9.438,9.438,0,0,0,4.714-.551,8.121,8.121,0,0,0,2.116-1.224,7.646,7.646,0,0,0,2.229-2.932q.065-.14.117-.284l.108-.287c.06-.194.131-.386.178-.582a9.73,9.73,0,0,0,.329-2.361,12.924,12.924,0,0,0-.168-2.315c-.059-.361-.134-.72-.222-1.075a14.69,14.69,0,0,1,1.847,1.622,13.015,13.015,0,0,1,2.254,3.136,12.777,12.777,0,0,1,1.427,6.772,15.943,15.943,0,0,1-.6,3.493,19.92,19.92,0,0,1-1.138,3l-.3.6c-.09.191-.192.361-.276.524-.166.328-.322.594-.431.8-.678,1.172-.652,1.27-.415,1.181a18.424,18.424,0,0,0,3.423-8.643,14.914,14.914,0,0,0-.2-4.615c-.066-.379-.179-.747-.274-1.119-.055-.184-.12-.364-.179-.546l-.091-.273c-.034-.09-.072-.178-.107-.267l-.216-.532-.249-.517c-.042-.086-.081-.173-.126-.258l-.141-.25c-.095-.166-.186-.334-.283-.5A14.412,14.412,0,0,0,48.6,28.015l-.493-.5-.523-.473c-.17-.163-.359-.3-.542-.45l-.275-.219c-.091-.074-.191-.136-.286-.2l-.269-.188-.01-.03c.075.051.15.1.224.156l.291.2L47,26.53l.278.223.139.111.133.12.53.481c.169.168.333.341.5.511a14.2,14.2,0,0,1,1.741,2.263c.1.164.189.33.284.5l.142.248c.045.084.084.171.126.256l.25.514.218.529.108.265.092.271c.06.181.125.361.182.543.1.37.213.734.279,1.111a13.987,13.987,0,0,1,.295,2.277l.018.576c.006.192-.006.384-.008.576,0,.385-.044.768-.069,1.153-.021.191-.049.383-.072.574l-.037.287-.051.285-.1.57-.131.565c-.023.094-.042.189-.067.282l-.079.279c-.054.186-.1.373-.161.558-.127.366-.237.738-.386,1.1a18.92,18.92,0,0,1-.967,2.118c-.191.338-.372.683-.583,1.01-.1.164-.2.333-.311.494l-.329.482c.219-.123.442-.242.308.135l-.049.071c-.032.045-.076.113-.136.192l-.155.2c-.518-.3-1.034-.594-1.544-.874-.411-.325-.921-.538-1.359-.869.284.2-.292-.113-.278-.021l-.622-.374a.642.642,0,0,1-.224-.072c-.674-.342-1.53-.829-2.311-1.174l.1.006c-.207-.09-.444-.187-.4-.108-.278-.179-.9-.453-1.2-.656-.065-.016-.128-.032-.207-.046-.04-.007-.083-.014-.137-.02-.023,0-.064-.005-.095-.006h-.069l-.037,0-.055.008.064-.01.041,0,.072,0c.037,0,.072,0,.095,0l.121.006c.062,0,.1,0,.139,0,.069,0,.113,0,.181,0-.074-.03-.151-.06-.245-.09a1.506,1.506,0,0,0-.172-.044,1.156,1.156,0,0,0-.13-.017c-.033,0-.069,0-.1,0-.015,0-.052,0-.078.007s-.055.009-.084.015a.933.933,0,0,0-.141.048l-.034.016-.025.012-.009,0-.034.017-.069.035c-.041.023-.1.06-.154.095a2.035,2.035,0,0,0-.3.241,1.658,1.658,0,0,0-.414.659,1.571,1.571,0,0,0-.069.4,1.691,1.691,0,0,0,.042.419L39.2,46l.015.078.03.157-.055-.145-.028-.073-.048-.144a1.685,1.685,0,0,1-.083-.51,1.665,1.665,0,0,0,.075.512l.038.119.024.072.041.118c.4,1.114,1.329,4.106,1.7,5.2a39.846,39.846,0,0,1,1.647,5.7l.078.456a2.277,2.277,0,0,0,.11.388,1.748,1.748,0,0,0,.2.351,1.091,1.091,0,0,0,.505.4,1.539,1.539,0,0,0,.582.135,1.474,1.474,0,0,0,.615-.113l.081-.034.039-.017.019-.008.01-.006.078-.047a1.524,1.524,0,0,0,.134-.093.331.331,0,0,0,.136-.17,8.484,8.484,0,0,0,4.052-1.114c-.621.207-1.251.414-1.859.584l.185-.061c-.038-.045-.051-.091.178-.16.027.061.366-.033.54-.071.275-.072.2-.186.505-.223,0-.031-.073-.025-.04-.074.177-.09.127-.061.343-.163.163-.047.2-.009.217.015a.856.856,0,0,0,.332-.109c-.264-.043.38-.223.137-.272l.227-.08c-.106.077-.093.091.017.1.3-.111.493-.2.775-.321.11-.012.035.013.123,0,.272-.132.835-.125.906-.25a.039.039,0,0,1-.014,0c-.023-.007-.03-.009.018-.045a.047.047,0,0,1,0,.013c.021-.016.054-.035.082-.053a1.362,1.362,0,0,0,.461-.115c-.006-.034-.145-.006-.171-.009l-.024.026a1.12,1.12,0,0,1-.362-.036c.276-.007.616-.177.876-.2l.1-.073c.036-.012.027,0,.031.007.1-.063-.115-.05.038-.112-.012.039.1.013.2-.011.061-.084,1.439-.269,1.536-.335.132-.029-.6.094-.922.162a.559.559,0,0,1,.13-.057c-.034-.012.926-.108.936-.145a.438.438,0,0,1,.226-.074c-.048.022-.023.025,0,.028l.173-.056c-.1.02-.042-.021-.083-.042a1.636,1.636,0,0,1,.514-.167l-.026.02a1.037,1.037,0,0,0,.393-.145c-.062-.047-.34.083-.325.019l.7-.2c.413-.119.769-.607.533-.965M43.9,26.789c.066.211.111.428.164.642s.091.432.12.651.059.437.085.656l.025.33c.01.11.014.22.016.328a8.076,8.076,0,0,1-.05,1.285A6.94,6.94,0,0,1,44,31.9a5.341,5.341,0,0,1-1.156,2.062,5.521,5.521,0,0,1-1.941,1.355,7.074,7.074,0,0,1-4.862.161,5.722,5.722,0,0,1-2.076-1.185,4.5,4.5,0,0,1-1.256-1.905c-.048-.124-.077-.256-.115-.384s-.062-.263-.079-.4-.036-.273-.05-.411-.008-.287-.014-.43a5.827,5.827,0,0,1,.216-1.7,6.039,6.039,0,0,1,.7-1.569,6.252,6.252,0,0,1,1.16-1.322,6.717,6.717,0,0,1,1.509-1,8.307,8.307,0,0,1,1.745-.621,9.792,9.792,0,0,1,1.871-.228c.158,0,.317.006.476.007.079,0,.159,0,.238.006l.238.021c.158.017.318.022.476.047l.474.074a11.184,11.184,0,0,1,1.6.42,10.974,10.974,0,0,1,.73,1.89M32.506,28.427c.018-.049.031-.1.053-.149l.051-.112c-.037.086-.072.173-.1.261m10.367-4.083.02.036a10.852,10.852,0,0,0-1.5-.339,9.39,9.39,0,0,0-5.333.7A7.355,7.355,0,0,0,33.9,26.257a6.289,6.289,0,0,0-1.23,1.772l.082-.184c.043-.1.1-.185.152-.279s.1-.187.158-.276a6.686,6.686,0,0,1,.793-1.008,7.418,7.418,0,0,1,2.12-1.531A9.3,9.3,0,0,1,41.29,24a10.774,10.774,0,0,1,1.583.348M41.767,22.71a11.921,11.921,0,0,0-1.538-.158,10.363,10.363,0,0,0-5.656,1.372,8.552,8.552,0,0,0-2.27,1.936,3.177,3.177,0,0,0-.229.3l-.218.306c-.138.208-.259.429-.387.643-.107.226-.22.449-.318.678l-.13.35a3.4,3.4,0,0,0-.119.353,8.2,8.2,0,0,0-.316,2.9,6.647,6.647,0,0,0,.492,2.1A6.7,6.7,0,0,1,30.55,30.9l-.005-.418.031-.419a6.736,6.736,0,0,1,.111-.835c.013-.069.021-.139.038-.208l.053-.205.108-.41c.041-.135.094-.267.141-.4a4.115,4.115,0,0,1,.155-.4,7.993,7.993,0,0,1,1.981-2.734,9.39,9.39,0,0,1,2.88-1.737,11.092,11.092,0,0,1,5.656-.512l.069.083m2.162,13.544a8.143,8.143,0,0,1-2.711,1.508,9.312,9.312,0,0,1-3,.465,9.444,9.444,0,0,1-2.969-.5,8.176,8.176,0,0,1-2.662-1.491,6.906,6.906,0,0,1-1.867-2.489,7.253,7.253,0,0,1-.59-3.01,8.335,8.335,0,0,1,.543-2.965A8.221,8.221,0,0,1,32.264,25.2a8.991,8.991,0,0,1,2.361-1.849,10.857,10.857,0,0,1,5.718-1.275c.317.015.634.043.949.082.04.044.08.088.119.133-.208-.028-.417-.052-.626-.07A10.846,10.846,0,0,0,35,23.29a9.1,9.1,0,0,0-2.424,1.767,7.986,7.986,0,0,0-2.3,5.466c0,.25.006.5.013.749l.033.381c.015.127.035.253.053.38a6.9,6.9,0,0,0,.422,1.488,6.74,6.74,0,0,0,1.8,2.505,7.957,7.957,0,0,0,2.63,1.513,9.335,9.335,0,0,0,2.957.516,9.225,9.225,0,0,0,2.991-.451,8.044,8.044,0,0,0,2.706-1.5,7.534,7.534,0,0,0,1.92-2.5c-.237.555-.044.254.048.155a7.59,7.59,0,0,1-1.927,2.5m6.045,12.619-.139-.084A20.683,20.683,0,0,0,52.809,42.9a17.8,17.8,0,0,0,.793-6.992,15.2,15.2,0,0,0-.76-3.54,14.523,14.523,0,0,0-1.634-3.3,15.4,15.4,0,0,0-2.444-2.84,14.867,14.867,0,0,0-3.128-2.212c-.079-.043-.16-.084-.241-.124l-.032-.066q.178.089.354.184a15.417,15.417,0,0,1,2.7,1.865,16.124,16.124,0,0,1,2.244,2.376,14.3,14.3,0,0,1,1.694,2.8,15.556,15.556,0,0,1,1.4,6.3A18.7,18.7,0,0,1,52.7,43.619a21,21,0,0,1-2.726,5.254m5.46,5.968c-.046-.009-.058-.029-.054-.053l.1-.03c.025.018.106.032-.049.083" transform="translate(-5151.293 -9939.903)" fill="#ff3443"/>
    <rect id="Rectangle_12055" data-name="Rectangle 12055" width="47.066" height="49.023" transform="translate(-5139 -9927.627)" fill="none"/>
  </g>
</svg>
